<svg width="30" height="23" viewBox="0 0 30 23" fill="none" xmlns="http://www.w3.org/2000/svg">
  <path d="M29.5603 11.0295L29.5502 11.0286C20.2769 11.0808 16.3373 5.64746 15.4667 0.393652C15.3795 -0.133016 14.6153 -0.129416 14.5088 0.393652L14.5032 0.424554C13.6146 5.6527 9.68008 11.038 0.469726 11.0018L0.439654 11.0026C-0.144833 11.0667 -0.148267 11.9748 0.439654 11.9715C9.71286 11.9192 13.6525 17.3526 14.5231 22.6064C14.6103 23.133 15.3745 23.1294 15.481 22.6064L15.4866 22.5755C16.3765 17.3397 20.3212 11.9464 29.5603 11.9984C30.1483 12.0017 30.1448 11.0936 29.5603 11.0295Z" fill="#FAD6D6"/>
</svg>
